<?xml version="1.0" standalone="no"?>
<!DOCTYPE svg PUBLIC "-//W3C//DTD SVG 20010904//EN"
 "http://www.w3.org/TR/2001/REC-SVG-20010904/DTD/svg10.dtd">
<svg version="1.0" xmlns="http://www.w3.org/2000/svg"
 width="4167.000000pt" height="4167.000000pt" viewBox="0 0 4167.000000 4167.000000"
 preserveAspectRatio="xMidYMid meet">
<metadata>
Created by potrace 1.16, written by Peter Selinger 2001-2019
</metadata>
<g transform="translate(0.000000,4167.000000) scale(0.100000,-0.100000)"
fill="#000000" stroke="none">
<path d="M24494 38950 c-535 -44 -1324 -290 -2199 -685 -236 -106 -764 -369
-1045 -521 -1937 -1044 -3699 -2232 -5355 -3609 -139 -115 -272 -218 -300
-231 -30 -15 -69 -24 -97 -24 -26 0 -330 40 -675 90 -1184 169 -4784 671
-6633 924 -2691 369 -3701 501 -5055 660 -802 95 -861 100 -1225 100 -263 0
-327 -3 -389 -17 -204 -48 -319 -157 -367 -349 -21 -85 -30 -398 -15 -553 16
-181 429 -2945 666 -4460 214 -1367 634 -4007 1079 -6770 107 -665 213 -1329
236 -1475 102 -655 201 -1077 310 -1317 126 -277 351 -453 663 -519 275 -57
640 -61 1642 -15 380 17 1032 47 1450 66 418 19 1105 51 1527 71 820 39 814
39 840 -9 14 -26 12 -106 -6 -357 -33 -442 -40 -672 -41 -1205 0 -1065 32
-1712 131 -2580 206 -1816 659 -3538 1331 -5059 923 -2088 2190 -3740 3948
-5147 928 -743 2069 -1453 3100 -1929 1651 -762 3457 -1210 5235 -1300 395
-20 1047 -11 1450 20 1477 114 2899 507 4255 1175 1948 961 3372 2346 4299
4185 510 1010 785 1981 856 3020 13 190 13 668 0 862 -52 779 -228 1542 -528
2288 -306 763 -685 1363 -1187 1879 -559 574 -1206 978 -1980 1236 -576 192
-1110 277 -1750 277 -375 0 -695 -28 -1025 -88 -1283 -234 -2247 -824 -2864
-1754 -111 -167 -168 -263 -238 -405 -200 -400 -328 -834 -380 -1290 -16 -144
-16 -579 0 -720 79 -678 330 -1294 705 -1730 351 -409 838 -668 1407 -751 151
-22 378 -15 499 15 284 71 516 242 622 456 53 109 72 189 72 310 -1 121 -19
202 -73 310 -48 98 -104 163 -224 259 -279 225 -474 504 -546 784 -124 479
107 931 600 1177 488 244 1086 248 1595 11 387 -181 727 -538 960 -1007 120
-244 202 -510 241 -784 26 -178 26 -613 1 -795 -203 -1456 -1030 -2462 -2463
-2998 -332 -124 -654 -202 -1034 -249 -205 -25 -743 -25 -950 0 -1104 134
-2075 603 -2845 1372 -442 443 -774 944 -1059 1602 -534 1234 -675 2595 -425
4088 252 1503 1105 3019 2277 4048 848 744 1850 1236 2933 1441 620 117 2087
290 3354 396 1375 114 3694 257 6230 385 275 14 541 30 590 35 589 69 967 341
1203 868 22 48 88 220 147 382 256 703 633 1691 1150 3015 581 1487 659 1687
896 2298 264 682 472 1232 488 1293 64 240 9 413 -172 536 -108 73 -297 147
-470 182 -231 48 -6685 958 -9752 1376 -445 60 -834 115 -863 121 -252 51
-454 193 -606 423 -67 102 -193 325 -326 576 -57 107 -133 249 -170 315 -37
66 -71 131 -75 145 -4 14 -75 171 -157 350 -312 673 -541 1202 -1131 2610
-745 1776 -806 1909 -983 2135 -223 286 -513 459 -864 519 -112 19 -320 26
-446 16z"/>
</g>
</svg>
